<svg width="50" height="46" viewBox="0 0 50 46" fill="none" xmlns="http://www.w3.org/2000/svg">
<path d="M41.11 14.9095C40.5778 14.7207 40.0412 14.5459 39.5006 14.385C39.5914 14.0013 39.675 13.6222 39.7492 13.2498C40.9676 7.13423 40.1711 2.2074 37.4506 0.585248C34.8422 -0.969851 30.5764 0.651693 26.2682 4.52874C25.8436 4.91152 25.4284 5.30533 25.023 5.7098C24.7517 5.44085 24.4755 5.17711 24.1947 4.91872C19.6795 0.773273 15.1537 -0.973891 12.4361 0.652904C9.83008 2.21285 9.0584 6.84442 10.1553 12.6403C10.2644 13.2143 10.3876 13.7854 10.5248 14.3529C9.88418 14.5412 9.26602 14.7415 8.67441 14.9548C3.38066 16.8633 0 19.8541 0 22.9565C0 26.1606 3.6293 29.3744 9.14297 31.3231C9.58997 31.4804 10.0407 31.6262 10.4947 31.7603C10.3473 32.3716 10.2164 32.987 10.1021 33.6059C9.05645 39.3012 9.87305 43.8233 12.4721 45.3733C15.1564 46.9741 19.6619 45.3289 24.0488 41.3634C24.4046 41.041 24.7525 40.7095 25.0922 40.3691C25.5312 40.8071 25.9819 41.2323 26.4438 41.6443C30.6934 45.4254 34.8902 46.9522 37.4867 45.398C40.1686 43.7926 41.0402 38.9346 39.9086 33.0242C39.8194 32.5612 39.7195 32.1004 39.6088 31.6424C39.9252 31.5455 40.2357 31.4457 40.5385 31.3419C46.2705 29.3782 50 26.2034 50 22.9565C50 19.8428 46.5102 16.8318 41.11 14.9095ZM39.8668 29.2455C39.5934 29.339 39.3129 29.4293 39.027 29.5172C38.3941 27.4456 37.5402 25.2431 36.4951 22.9672C37.4924 20.7456 38.3135 18.5711 38.9285 16.5131C39.44 16.6662 39.9363 16.8276 40.4148 16.9978C45.0418 18.645 47.8641 21.08 47.8641 22.9565C47.8641 24.9551 44.816 27.5497 39.8668 29.2455ZM37.8133 33.4532C38.3137 36.0666 38.385 38.4295 38.0535 40.2768C37.7559 41.9367 37.157 43.0433 36.4164 43.4866C34.8408 44.4298 31.4711 43.2038 27.8369 39.9701C27.4073 39.587 26.9881 39.1917 26.5797 38.7845C27.9887 37.1913 29.3967 35.3391 30.7709 33.2819C33.1881 33.0602 35.4717 32.6974 37.5426 32.2024C37.6423 32.6171 37.7326 33.0341 37.8133 33.4532ZM17.0461 43.3236C15.5066 43.8857 14.2805 43.9018 13.5393 43.4599C11.9621 42.5194 11.3064 38.8884 12.2008 34.0179C12.3071 33.4423 12.4288 32.8699 12.5658 32.3014C14.6139 32.7699 16.8809 33.1068 19.3037 33.31C20.6873 35.3229 22.1359 37.1731 23.5959 38.7932C23.2856 39.1037 22.968 39.4062 22.6434 39.7004C20.7033 41.4539 18.7594 42.6979 17.0461 43.3236ZM9.83398 29.2332C7.3959 28.3714 5.38242 27.2516 4.00234 26.0295C2.76211 24.9314 2.13613 23.841 2.13613 22.9565C2.13613 21.0738 4.85039 18.6725 9.37754 17.0404C9.92695 16.8425 10.502 16.6557 11.0986 16.4804C11.7244 18.5848 12.5451 20.7852 13.5355 23.0102C12.5322 25.2681 11.6998 27.5036 11.068 29.6329C10.6535 29.5101 10.2421 29.3769 9.83398 29.2332ZM12.2516 12.216C11.3119 7.25036 11.9359 3.50459 13.5064 2.56446C15.1791 1.56314 18.8779 2.9908 22.7766 6.57036C23.0308 6.80431 23.2809 7.043 23.5268 7.28631C22.074 8.89937 20.6387 10.7358 19.2674 12.7368C16.9158 12.9622 14.6648 13.3241 12.5953 13.809C12.4678 13.2812 12.3532 12.75 12.2516 12.2162V12.216ZM33.8193 17.723C33.3305 16.85 32.8236 15.9879 32.2988 15.1373C33.8941 15.346 35.4227 15.6229 36.858 15.9613C36.4271 17.3896 35.89 18.8827 35.2578 20.4136C34.7957 19.5069 34.3161 18.6099 33.8193 17.723ZM25.024 8.86484C26.0092 9.96855 26.9959 11.2007 27.9664 12.5377C25.9977 12.4416 24.0256 12.4411 22.0568 12.5365C23.0283 11.2118 24.0234 9.98128 25.024 8.86484ZM16.1723 17.7382C15.6817 18.6179 15.2111 19.5093 14.7607 20.4118C14.1389 18.8863 13.6066 17.3864 13.1721 15.9379C14.5986 15.6079 16.1199 15.3381 17.7051 15.1333C17.1745 15.989 16.6634 16.8575 16.1723 17.738V17.7382ZM17.7506 30.9367C16.1129 30.7477 14.5688 30.4918 13.1426 30.1707C13.584 28.6964 14.1279 27.1645 14.7633 25.6064C15.2154 26.5095 15.688 27.4015 16.1807 28.2816C16.6873 29.1863 17.2119 30.0726 17.7506 30.9367ZM25.083 37.2036C24.0705 36.0742 23.0607 34.8247 22.0746 33.4808C23.032 33.5196 24.008 33.5394 25 33.5394C26.0191 33.5394 27.0266 33.5158 28.0182 33.4701C27.0445 34.8382 26.0615 36.0896 25.083 37.2036ZM35.2779 25.5268C35.9463 27.1021 36.5096 28.6259 36.9568 30.075C35.5072 30.4171 33.942 30.6926 32.2928 30.8972C32.8212 30.0309 33.333 29.1538 33.8277 28.2664C34.3307 27.3645 34.8143 26.451 35.2779 25.5268ZM31.9775 27.1629C31.2202 28.5234 30.4202 29.858 29.5789 31.1648C28.055 31.2764 26.5277 31.3318 25 31.331C23.4439 31.331 21.9305 31.2809 20.473 31.1831C19.6098 29.8794 18.7946 28.5424 18.0291 27.175H18.0293C17.2674 25.8148 16.5558 24.4252 15.8959 23.0092C16.5541 21.5928 17.2636 20.2025 18.0229 18.8413L18.0227 18.8415C18.7816 17.4799 19.5904 16.1487 20.4471 14.8506C21.934 14.7342 23.4588 14.6736 24.9998 14.6736H25C26.548 14.6736 28.0748 14.7348 29.5613 14.852C30.4094 16.1481 31.2129 17.4748 31.9705 18.8296C32.7323 20.1878 33.4512 21.5713 34.126 22.9779C33.4581 24.3988 32.7415 25.7947 31.9775 27.1629ZM36.3838 2.49863C38.058 3.49712 38.7092 7.52361 37.6572 12.8039C37.59 13.1408 37.5146 13.4839 37.4326 13.8319C35.358 13.3367 33.1055 12.9685 30.7471 12.7397C29.3732 10.7166 27.9496 8.87736 26.5205 7.2851C26.895 6.91178 27.2785 6.54813 27.6705 6.19451C31.3619 2.87286 34.8119 1.56132 36.3838 2.49863ZM25 18.3396C27.4658 18.3396 29.4648 20.4067 29.4648 22.9565C29.4648 25.5062 27.4658 27.5733 25 27.5733C22.5342 27.5733 20.5352 25.5062 20.5352 22.9565C20.5352 20.4067 22.5342 18.3396 25 18.3396Z" fill="#00D8FF"/>
</svg>
